<?xml version="1.0" encoding="UTF-8"?><svg id="Layer_1" xmlns="http://www.w3.org/2000/svg" viewBox="0 0 720 720"><defs><style>.cls-1{fill:#010101;}</style></defs><g id="_1547_Box_coding_design_development_programing"><path class="cls-1" d="M606.25,125.36H97.31c-6.21,0-10.64,5.26-10.64,11.39v503.99c0,6.14,5.32,10.52,10.64,10.52h509.83c6.21,0,11.53-5.26,11.53-10.52V136.76c-.89-6.13-6.21-11.39-12.42-11.39ZM263.11,147.28h133v115.7l-58.52-57.85c-4.43-4.38-11.53-4.38-15.96,0l-58.52,57.85v-115.7h0ZM595.61,629.36H107.95V147.28h133v142c0,4.38,2.66,8.77,7.09,10.52,4.43,1.75,8.87.88,12.42-2.63l70.04-69.24,70.05,69.24c1.77,1.75,5.32,3.51,7.98,3.51,6.21,0,10.64-5.26,10.64-11.39v-142h177.33l-.89,482.08h0Z"/><path class="cls-1" d="M373.95,563.62h-32.81v-93.79l14.19,14.03c4.43,4.38,11.53,4.38,15.96,0,4.43-4.38,4.43-11.39,0-15.78-35.47-35.06-33.69-33.31-35.47-34.18-.89,0,0,0-.89-.88h-8.87c-.89,0,0,0-.89.88-1.77.87,0,0-35.47,34.18-4.43,4.38-4.43,11.39,0,15.78,4.43,4.38,11.53,4.38,15.96,0l14.18-14.03v93.79h-101.08v-93.79l14.19,14.03c4.43,4.38,11.53,4.38,15.96,0,4.43-4.38,4.43-11.39,0-15.78-35.47-35.06-33.69-33.31-35.47-34.18-.89,0,0,0-.89-.88h-8.86c-.89,0,0,0-.89.88-1.77.87,0,0-35.47,34.18-4.43,4.38-4.43,11.39,0,15.78,4.43,4.38,11.53,4.38,15.96,0l14.19-14.03v93.79h-33.69c-6.21,0-11.53,5.26-11.53,11.39s5.32,11.4,11.53,11.4h210.14c6.21,0,11.53-5.26,11.53-11.4-.89-6.13-5.32-11.39-11.53-11.39Z"/><path class="cls-1" d="M440.45,497.88h99.31c6.21,0,11.53-5.26,11.53-10.52,0-6.13-5.32-11.39-11.53-11.39h-99.31c-6.21,0-11.53,5.26-11.53,11.39,0,5.26,5.32,10.52,11.53,10.52Z"/><path class="cls-1" d="M539.75,519.79h-99.31c-6.21,0-11.53,5.26-11.53,11.39s5.32,10.52,11.53,10.52h99.31c6.21,0,11.53-5.26,11.53-10.52,0-6.13-5.32-11.39-11.53-11.39Z"/><path class="cls-1" d="M539.75,563.62h-99.31c-6.21,0-11.53,5.26-11.53,11.39s5.32,11.4,11.53,11.4h99.31c6.21,0,11.53-5.26,11.53-11.4s-5.32-11.39-11.53-11.39Z"/><rect class="cls-1" x="230.31" y="333.97" width="22.17" height="21.91"/><rect class="cls-1" x="274.64" y="333.97" width="22.17" height="21.91"/><rect class="cls-1" x="318.09" y="333.97" width="22.17" height="21.91"/><rect class="cls-1" x="362.42" y="333.97" width="22.17" height="21.91"/><rect class="cls-1" x="406.75" y="333.97" width="22.17" height="21.91"/><rect class="cls-1" x="451.09" y="333.97" width="22.17" height="21.91"/><rect class="cls-1" x="230.31" y="377.8" width="22.17" height="21.91"/><rect class="cls-1" x="274.64" y="377.8" width="22.17" height="21.91"/><rect class="cls-1" x="318.09" y="377.8" width="22.17" height="21.91"/><rect class="cls-1" x="362.42" y="377.8" width="22.17" height="21.91"/><rect class="cls-1" x="406.75" y="377.8" width="22.17" height="21.91"/><rect class="cls-1" x="451.09" y="377.8" width="22.17" height="21.91"/></g></svg>